<svg width="286" height="306" viewBox="0 0 286 306" fill="none" xmlns="http://www.w3.org/2000/svg">
  <style>
    .label { fill: #64748b; font: 8px -apple-system, BlinkMacSystemFont, "Segoe UI", sans-serif; text-transform: uppercase; }
    .value { fill: #d1d5db; font: 700 14px -apple-system, BlinkMacSystemFont, "Segoe UI", sans-serif; }
    .small { fill: #60a5fa; font: 9px -apple-system, BlinkMacSystemFont, "Segoe UI", sans-serif; }
    .reset { fill: #d1d5db; font: 600 11px -apple-system, BlinkMacSystemFont, "Segoe UI", sans-serif; }
    .title { fill: #fff; font: 700 12px -apple-system, BlinkMacSystemFont, "Segoe UI", sans-serif; }
    .badge { fill: #064e3b; font: 700 10px -apple-system, BlinkMacSystemFont, "Segoe UI", sans-serif; }
  </style>

  <rect width="286" height="299" fill="#1f242b"/>

  <rect x="8" y="7" width="270" height="32" rx="6" fill="#10b981"/>
  <text x="18" y="27" class="title">Codex Usage</text>
  <rect x="230" y="15" width="34" height="16" rx="8" fill="#a7f3d0"/>
  <text x="238" y="27" class="badge">PLUS</text>

  <rect x="8" y="48" width="137" height="80" rx="6" fill="#252b32"/>
  <text x="51" y="70" class="label">5H Window</text>
  <text x="60" y="94" class="value">53%</text>
  <text x="65" y="106" class="small">Used</text>
  <rect x="16" y="114" width="116" height="4" rx="2" fill="#1f242b"/>
  <rect x="16" y="114" width="61" height="4" rx="2" fill="#10b981"/>

  <rect x="153" y="48" width="129" height="80" rx="6" fill="#252b32"/>
  <text x="190" y="70" class="label">7D Window</text>
  <text x="205" y="94" class="value">8%</text>
  <text x="202" y="106" class="small">Used</text>
  <rect x="160" y="114" width="115" height="4" rx="2" fill="#1f242b"/>
  <rect x="160" y="114" width="9" height="4" rx="2" fill="#10b981"/>

  <rect x="8" y="134" width="137" height="80" rx="6" fill="#252b32"/>
  <text x="16" y="150" class="label">Reset Primary</text>
  <text x="16" y="164" class="reset">Resets 7:46 PM</text>

  <rect x="153" y="134" width="129" height="80" rx="6" fill="#252b32"/>
  <text x="161" y="150" class="label">Reset Secondary</text>
  <text x="161" y="164" class="reset">Resets Jun 15, 2026</text>
  <text x="161" y="178" class="reset">2:46 PM</text>

  <rect x="8" y="221" width="137" height="38" rx="6" fill="#252b32"/>
  <text x="16" y="238" class="label">Email</text>
  <path d="M18 248 C36 242 72 244 95 246 C118 248 145 243 166 248 C157 254 126 254 102 252 C73 250 43 255 18 253 C12 252 12 250 18 248Z" fill="#ef4444"/>
  <path d="M24 250 C55 247 87 250 116 249 C136 248 151 247 163 250" stroke="#dc2626" stroke-width="4" stroke-linecap="round"/>

  <rect x="153" y="221" width="129" height="38" rx="6" fill="#252b32"/>
  <text x="161" y="238" class="label">Status</text>
  <text x="161" y="252" class="reset">Allowed</text>

  <rect x="8" y="266" width="137" height="38" rx="6" fill="#252b32"/>
  <text x="16" y="283" class="label">Credits</text>
  <text x="16" y="297" class="reset">0 / reset 0</text>

  <rect x="153" y="266" width="129" height="38" rx="6" fill="#252b32"/>
  <text x="161" y="283" class="label">Spend</text>
  <text x="161" y="297" class="reset">OK</text>
</svg>
